<svg width="21" height="22" viewBox="0 0 21 22" fill="none" xmlns="http://www.w3.org/2000/svg">
<path d="M20.4865 15.2091L18.08 6.52842C17.5964 4.7822 16.5424 3.24803 15.0858 2.17027C13.6293 1.09251 11.854 0.533153 10.0427 0.581297C8.23138 0.629442 6.48829 1.28232 5.09105 2.43593C3.69381 3.58955 2.72278 5.17755 2.33265 6.94698L0.471881 15.3183C0.402121 15.6324 0.4038 15.9582 0.476794 16.2716C0.549788 16.5849 0.692233 16.8779 0.893612 17.1289C1.09499 17.3799 1.35016 17.5824 1.64029 17.7215C1.93042 17.8607 2.2481 17.9329 2.56986 17.9328H6.13068C6.40419 18.8787 6.97764 19.7101 7.76465 20.3018C8.55166 20.8934 9.50962 21.2134 10.4942 21.2134C11.4789 21.2134 12.4368 20.8934 13.2238 20.3018C14.0108 19.7101 14.5843 18.8787 14.8578 17.9328H18.4169C18.7482 17.9328 19.0749 17.8563 19.3717 17.7091C19.6684 17.5619 19.9272 17.3482 20.1276 17.0845C20.3281 16.8208 20.4649 16.5143 20.5273 16.189C20.5897 15.8636 20.576 15.5283 20.4874 15.2091H20.4865ZM3.10532 15.3544L4.85006 7.50135C5.11728 6.2947 5.78048 5.21213 6.73407 4.42595C7.68766 3.63978 8.87684 3.1952 10.1123 3.16298C11.3478 3.13076 12.5585 3.51275 13.5518 4.24815C14.545 4.98355 15.2638 6.03008 15.5935 7.22116L17.8522 15.3544H3.10532Z" fill="white"/>
</svg>
