<svg width="21" height="20" viewBox="0 0 21 20" fill="none" xmlns="http://www.w3.org/2000/svg">
<path d="M18.049 0.437927H2.57843C1.89459 0.437927 1.23875 0.709583 0.755205 1.19313C0.271655 1.67668 0 2.33252 0 3.01636L0 19.3464H20.6275V3.01636C20.6275 2.33252 20.3558 1.67668 19.8722 1.19313C19.3887 0.709583 18.7329 0.437927 18.049 0.437927ZM17.8548 3.01636L11.7224 9.14873C11.343 9.51114 10.8384 9.71337 10.3137 9.71337C9.78901 9.71337 9.28449 9.51114 8.90504 9.14873L2.77267 3.01636H17.8548ZM2.57843 16.768V6.46888L7.08123 10.9717C7.50561 11.3962 8.00947 11.733 8.56404 11.9628C9.1186 12.1926 9.71301 12.3109 10.3133 12.3109C10.9136 12.3109 11.508 12.1926 12.0626 11.9628C12.6171 11.733 13.121 11.3962 13.5454 10.9717L18.049 6.46888V16.768H2.57843Z" fill="white"/>
</svg>
