<svg width="24" height="24" role="img" aria-label="inicio" viewBox="0 0 24 24" fill="none" xmlns="http://www.w3.org/2000/svg">
  <path fill="#7F8794" d="M13.768 1.14702C13.5358 0.914801 13.2602 0.730593 12.9569 0.604915C12.6535 0.479237 12.3284 0.414551 12 0.414551C11.6716 0.414551 11.3465 0.479237 11.0431 0.604915C10.7398 0.730593 10.4642 0.914801 10.232 1.14702L0 11.38V21C0 21.7957 0.31607 22.5587 0.87868 23.1213C1.44129 23.684 2.20435 24 3 24H21C21.7956 24 22.5587 23.684 23.1213 23.1213C23.6839 22.5587 24 21.7957 24 21V11.38L13.768 1.14702ZM21 21H16V17.818C16 16.8054 15.5977 15.8343 14.8817 15.1183C14.1657 14.4023 13.1946 14 12.182 14H11.818C10.8054 14 9.83428 14.4023 9.11827 15.1183C8.40225 15.8343 8 16.8054 8 17.818V21H3V12.622L12 3.62202L21 12.622V21Z" />
</svg>
