<svg width="106" height="32" viewBox="0 0 106 32" fill="none" xmlns="http://www.w3.org/2000/svg">
<g clip-path="url(#clip0_4_202)">
<path d="M0 32H32.1445V0H0V32ZM1.99811 1.98934H30.1451V30.0094H1.99811V1.98934Z" fill="white"/>
<path d="M6.8606 25.1709H24.9959V23.1816H8.86002V16.9896H20.3743V15.0002H8.86002V8.8149H24.9959V6.82556H6.8606V25.1709Z" fill="white"/>
<path d="M36.9292 32H69.0737V0H36.9292V32ZM38.9273 1.98934H67.0743V30.0094H38.9273V1.98934Z" fill="white"/>
<path d="M53.3585 22.0597L45.1355 6.67969H42.8711L52.476 24.645H54.2409L63.8458 6.67969H61.5814L53.3585 22.0597Z" fill="white"/>
<path d="M73.8557 0V32H106V0H73.8557ZM104.001 30.0107H75.8538V1.98934H104.001V30.0107Z" fill="white"/>
<path d="M89.5733 9.94039L97.7963 25.3204H100.061L89.5733 5.70569L79.0859 25.3204H81.3504L89.5733 9.94039Z" fill="white"/>
</g>
<defs>
<clipPath id="clip0_4_202">
<rect width="106" height="32" fill="white"/>
</clipPath>
</defs>
</svg>
