<svg width="296" height="264" viewBox="0 0 296 264" fill="none" xmlns="http://www.w3.org/2000/svg">
<path d="M82.5 68H211M82.5 105H211M256.5 202.5C266.5 201.833 286.9 195.4 288.5 175C290.1 154.6 289.167 77.5 288.5 41.5C288.333 30 281.7 6.89997 256.5 6.49997C231.3 6.09997 99.6667 6.33331 37 6.49997C27.6667 6.99998 8.6 12.3 7 29.5C5.4 46.7 8.00001 124 8.00001 167C8.00001 182 16.5 202.5 37 202.5C57.5 202.5 49.6667 202.5 44.5 202.5V252.5L124 202.5H256.5Z" stroke="black" stroke-width="12"/>
<path d="M82 142L210 143.5" stroke="black" stroke-width="12"/>
</svg>
