<svg width="89" height="89" viewBox="0 0 89 89" fill="none" xmlns="http://www.w3.org/2000/svg">
<g filter="url(#filter0_d_1_834)">
<circle cx="43.5" cy="42.5" r="34.5" fill="black"/>
</g>
<g clip-path="url(#clip0_1_834)">
<path d="M58.3254 21.2491C53.5951 21.0837 48.775 20.9986 44 20.9986C39.225 20.9986 34.4044 21.0827 29.6746 21.2491C24.8912 21.2601 21 25.2007 21 30.0351V38.9645C21 43.7989 24.8907 47.7396 29.6746 47.7506C34.4054 47.9159 39.2255 48.0011 44 48.0011C48.7745 48.0011 53.5951 47.9169 58.3254 47.7506C63.1088 47.7396 67 43.7989 67 38.9645V30.0351C67 25.2007 63.1093 21.2601 58.3254 21.2491ZM58.2719 45.5463H58.2684C53.5564 45.7116 48.7556 45.7968 43.9995 45.7968C39.2434 45.7968 34.4426 45.7131 29.7306 45.5463H29.6929C26.1026 45.5463 23.181 42.5936 23.181 38.9645V30.0351C23.181 26.4061 26.1026 23.4533 29.6934 23.4533H29.7311C34.4431 23.288 39.2439 23.2029 44 23.2029C48.7561 23.2029 53.5569 23.2865 58.2689 23.4533H58.3066C61.8974 23.4533 64.819 26.4061 64.819 30.0351V38.9645C64.819 42.5936 61.8974 45.5463 58.3066 45.5463H58.2724H58.2719Z" fill="white"/>
<path d="M35.1396 34.1686C34.7901 33.8525 34.4047 33.5796 33.9915 33.3555C33.5963 33.1408 33.1907 32.9464 32.7761 32.7729C32.386 32.6106 32.0227 32.4458 31.696 32.2839C31.4187 32.1531 31.1654 31.9756 30.947 31.7589C30.8653 31.675 30.8012 31.5753 30.7586 31.4657C30.716 31.3561 30.6958 31.2389 30.6992 31.1212C30.6992 30.8707 30.7596 30.6703 30.8841 30.5125C31.0085 30.3547 31.2112 30.2159 31.4789 30.1177C31.8 30.0077 32.1377 29.955 32.4767 29.9619C32.9387 29.9619 33.3055 30.012 33.5672 30.1162C33.7983 30.2031 34.0215 30.3101 34.2344 30.4358C34.4298 30.5622 34.6563 30.6306 34.8882 30.6332C35.0124 30.6365 35.1357 30.6127 35.2499 30.5634C35.3641 30.5142 35.4665 30.4406 35.55 30.3477C35.7008 30.182 35.8161 29.9865 35.8885 29.7736C35.9539 29.5941 35.9899 29.4051 35.9951 29.214C35.9951 28.8673 35.8464 28.5787 35.5584 28.3568C35.264 28.1424 34.9329 27.9846 34.5819 27.8914C34.2111 27.7839 33.8321 27.7078 33.4488 27.664C33.1254 27.6253 32.8003 27.6043 32.4747 27.6008C31.9523 27.6019 31.432 27.6662 30.9247 27.7922C30.4144 27.9161 29.9292 28.1285 29.4907 28.4199C29.0516 28.7141 28.6884 29.11 28.4314 29.5747C28.1652 30.0501 28.0304 30.6417 28.0304 31.3331C28.0304 31.9628 28.1404 32.5039 28.357 32.9417C28.5632 33.3659 28.8532 33.7429 29.2091 34.0494C29.5579 34.3452 29.9407 34.5975 30.3492 34.8008C30.7497 35.0012 31.1552 35.1916 31.5537 35.3694C31.9409 35.5423 32.3062 35.7236 32.6388 35.909C32.9257 36.0618 33.1787 36.2722 33.3823 36.5272C33.5538 36.7521 33.6376 37.0242 33.6376 37.3583C33.6376 37.6669 33.5638 37.9094 33.4116 38.0967C33.2439 38.2987 33.0256 38.4515 32.7796 38.5391C32.491 38.645 32.1859 38.6976 31.8789 38.6944C31.466 38.6944 31.1165 38.6318 30.8409 38.5085C30.5805 38.3955 30.3378 38.2444 30.1207 38.0602C29.9145 37.8803 29.7241 37.719 29.5581 37.5802C29.3776 37.4214 29.1471 37.3326 28.9077 37.3297C28.6712 37.3305 28.4435 37.421 28.2698 37.5832C28.0964 37.7394 27.9576 37.9308 27.8623 38.1448C27.7696 38.339 27.7189 38.551 27.7136 38.7665C27.7136 39.1643 27.9119 39.5551 28.3085 39.9283C28.6822 40.279 29.1928 40.5796 29.8267 40.809C30.4607 41.0385 31.1711 41.1567 31.9473 41.1567C32.7756 41.1567 33.5236 41.0064 34.1705 40.7058C34.8114 40.4151 35.3541 39.941 35.7314 39.3422C36.1116 38.741 36.3044 37.9945 36.3044 37.1243C36.3044 36.44 36.1988 35.8514 35.9902 35.3744C35.7949 34.9158 35.5049 34.5047 35.1396 34.1686Z" fill="white"/>
<path d="M48.9955 39.6102L45.6248 28.5026C45.5257 28.187 45.3071 27.9515 44.9764 27.7962C44.6599 27.6563 44.3182 27.584 43.9727 27.584C43.6272 27.584 43.2854 27.6563 42.9689 27.7962C42.6308 27.9495 42.4098 28.187 42.3106 28.5011L38.9355 39.6102L38.931 39.6252V39.6407C38.92 39.7085 38.9135 39.777 38.9117 39.8456C38.9117 39.9675 38.9377 40.0878 38.9879 40.1986C39.0381 40.3093 39.1114 40.4078 39.2027 40.4874C39.3837 40.6527 39.5953 40.7803 39.8252 40.8626C40.0537 40.9504 40.2957 40.9965 40.54 40.9989C40.7367 41.0025 40.9319 40.963 41.112 40.8832C41.3044 40.7945 41.4387 40.6242 41.5007 40.3912L42.1064 38.1909H45.8241L46.4462 40.3952C46.5081 40.6297 46.635 40.796 46.8229 40.8847C47.0006 40.9658 47.194 41.0057 47.389 41.0014C47.6333 40.999 47.8753 40.9529 48.1038 40.8651C48.3384 40.7804 48.554 40.6494 48.7382 40.4799C48.9365 40.294 49.0356 40.0791 49.0356 39.8471C49.0318 39.7684 49.0176 39.6906 48.9935 39.6157L48.9955 39.6102ZM45.2228 35.9876H42.7072L43.9652 31.5014L45.2228 35.9876Z" fill="white"/>
<path d="M60.2363 40.5746C60.3604 40.3393 60.4253 40.0767 60.4252 39.8101C60.4324 39.5188 60.3586 39.2314 60.212 38.9805C60.1409 38.8571 60.0382 38.7554 59.9148 38.6858C59.7915 38.6163 59.6519 38.5815 59.5106 38.5852H54.7639V35.4366H57.2215C57.6335 35.4366 57.8416 35.2237 57.9438 35.0448C58.0673 34.8355 58.1337 34.5967 58.1361 34.353C58.1414 34.0841 58.0655 33.8201 57.9185 33.596C57.8424 33.4807 57.7385 33.3869 57.6165 33.3236C57.4945 33.2603 57.3586 33.2296 57.2215 33.2343H54.7639V30.1032H59.5106C59.6519 30.1069 59.7915 30.0722 59.9149 30.0026C60.0383 29.9331 60.1409 29.8313 60.212 29.7079C60.3586 29.4572 60.4324 29.1699 60.4252 28.8788C60.4254 28.612 60.3605 28.3493 60.2363 28.1138C60.0911 27.8363 59.8398 27.689 59.5106 27.689H53.2902C53.0155 27.6878 52.7455 27.7614 52.5085 27.9019C52.3815 27.9706 52.2757 28.0734 52.2028 28.1991C52.1299 28.3247 52.0928 28.4682 52.0956 28.6138V40.0746C52.0928 40.2202 52.1299 40.3637 52.2028 40.4893C52.2757 40.615 52.3815 40.7178 52.5085 40.7865C52.7455 40.927 53.0155 41.0006 53.2902 40.9994H59.5106C59.8398 40.9994 60.0911 40.8526 60.2363 40.5746Z" fill="white"/>
</g>
<path d="M31.648 63.112C30.8453 63.112 30.122 62.9487 29.478 62.622C28.8433 62.286 28.344 61.824 27.98 61.236C27.6253 60.648 27.448 59.9807 27.448 59.234C27.448 58.4873 27.6253 57.82 27.98 57.232C28.344 56.644 28.8433 56.1867 29.478 55.86C30.122 55.524 30.8453 55.356 31.648 55.356C32.4413 55.356 33.132 55.524 33.72 55.86C34.3173 56.1867 34.7513 56.658 35.022 57.274L33.328 58.184C32.936 57.4933 32.3713 57.148 31.634 57.148C31.0647 57.148 30.5933 57.3347 30.22 57.708C29.8467 58.0813 29.66 58.59 29.66 59.234C29.66 59.878 29.8467 60.3867 30.22 60.76C30.5933 61.1333 31.0647 61.32 31.634 61.32C32.3807 61.32 32.9453 60.9747 33.328 60.284L35.022 61.208C34.7513 61.8053 34.3173 62.272 33.72 62.608C33.132 62.944 32.4413 63.112 31.648 63.112ZM40.8028 55.356C41.7361 55.356 42.4875 55.636 43.0568 56.196C43.6355 56.756 43.9248 57.5867 43.9248 58.688V63H41.7408V59.024C41.7408 58.4267 41.6101 57.9833 41.3488 57.694C41.0875 57.3953 40.7095 57.246 40.2148 57.246C39.6641 57.246 39.2255 57.4187 38.8988 57.764C38.5721 58.1 38.4088 58.604 38.4088 59.276V63H36.2248V52.612H38.4088V56.252C38.6981 55.9627 39.0481 55.7433 39.4588 55.594C39.8695 55.4353 40.3175 55.356 40.8028 55.356ZM48.9425 55.356C50.1092 55.356 51.0052 55.636 51.6305 56.196C52.2558 56.7467 52.5685 57.582 52.5685 58.702V63H50.5245V62.062C50.1138 62.762 49.3485 63.112 48.2285 63.112C47.6498 63.112 47.1458 63.014 46.7165 62.818C46.2965 62.622 45.9745 62.3513 45.7505 62.006C45.5265 61.6607 45.4145 61.2687 45.4145 60.83C45.4145 60.13 45.6758 59.5793 46.1985 59.178C46.7305 58.7767 47.5472 58.576 48.6485 58.576H50.3845C50.3845 58.1 50.2398 57.736 49.9505 57.484C49.6612 57.2227 49.2272 57.092 48.6485 57.092C48.2472 57.092 47.8505 57.1573 47.4585 57.288C47.0758 57.4093 46.7492 57.5773 46.4785 57.792L45.6945 56.266C46.1052 55.9767 46.5952 55.7527 47.1645 55.594C47.7432 55.4353 48.3358 55.356 48.9425 55.356ZM48.7745 61.642C49.1478 61.642 49.4792 61.558 49.7685 61.39C50.0578 61.2127 50.2632 60.956 50.3845 60.62V59.85H48.8865C47.9905 59.85 47.5425 60.144 47.5425 60.732C47.5425 61.012 47.6498 61.236 47.8645 61.404C48.0885 61.5627 48.3918 61.642 48.7745 61.642ZM59.4031 62.636C59.1884 62.7947 58.9224 62.916 58.6051 63C58.2971 63.0747 57.9704 63.112 57.6251 63.112C56.7291 63.112 56.0338 62.8833 55.5391 62.426C55.0538 61.9687 54.8111 61.2967 54.8111 60.41V57.316H53.6491V55.636H54.8111V53.802H56.9951V55.636H58.8711V57.316H56.9951V60.382C56.9951 60.6993 57.0744 60.9467 57.2331 61.124C57.4011 61.292 57.6344 61.376 57.9331 61.376C58.2784 61.376 58.5724 61.2827 58.8151 61.096L59.4031 62.636Z" fill="white"/>
<defs>
<filter id="filter0_d_1_834" x="0" y="0" width="89" height="89" filterUnits="userSpaceOnUse" color-interpolation-filters="sRGB">
<feFlood flood-opacity="0" result="BackgroundImageFix"/>
<feColorMatrix in="SourceAlpha" type="matrix" values="0 0 0 0 0 0 0 0 0 0 0 0 0 0 0 0 0 0 127 0" result="hardAlpha"/>
<feOffset dx="1" dy="2"/>
<feGaussianBlur stdDeviation="5"/>
<feComposite in2="hardAlpha" operator="out"/>
<feColorMatrix type="matrix" values="0 0 0 0 0 0 0 0 0 0 0 0 0 0 0 0 0 0 0.25 0"/>
<feBlend mode="normal" in2="BackgroundImageFix" result="effect1_dropShadow_1_834"/>
<feBlend mode="normal" in="SourceGraphic" in2="effect1_dropShadow_1_834" result="shape"/>
</filter>
<clipPath id="clip0_1_834">
<rect width="46" height="27" fill="white" transform="translate(21 21)"/>
</clipPath>
</defs>
</svg>
